<?xml version="1.0" encoding="utf-8"?>
<!-- Generator: Adobe Illustrator 25.0.1, SVG Export Plug-In . SVG Version: 6.00 Build 0)  -->
<svg version="1.1" id="Layer_1" xmlns="http://www.w3.org/2000/svg" xmlns:xlink="http://www.w3.org/1999/xlink" x="0px" y="0px"
	 viewBox="0 0 304.81 68.91" style="enable-background:new 0 0 304.81 68.91;" xml:space="preserve">
<style type="text/css">
	.st0{fill:#EE7203;}
</style>
<path class="st0" d="M40.31,26.96H24.72c0.37-2.21,0.99-4.06,1.88-5.56c0.89-1.5,1.96-2.71,3.21-3.63c1.25-0.92,2.6-1.58,4.03-1.98
	c1.44-0.4,2.89-0.57,4.36-0.51c1.47,0.06,2.87,0.32,4.22,0.78c1.34,0.46,2.55,1.07,3.62,1.84c1.07,0.77,1.93,1.66,2.57,2.67
	c0.64,1.01,0.96,2.1,0.96,3.26h12.66c-0.06-2.02-0.32-3.89-0.78-5.61c-0.46-1.71-1.12-3.31-1.97-4.78c-0.86-1.47-1.88-2.8-3.07-4
	c-1.19-1.19-2.51-2.25-3.95-3.17c-1.44-0.92-2.96-1.7-4.58-2.34c-1.62-0.64-3.33-1.16-5.14-1.56c-1.8-0.4-3.64-0.64-5.5-0.73
	c-1.87-0.09-3.76-0.05-5.69,0.14c-1.93,0.18-3.82,0.52-5.69,1.01C24,3.29,22.18,3.9,20.41,4.63c-1.77,0.73-3.48,1.64-5.13,2.71
	c-1.65,1.07-3.18,2.28-4.59,3.63c-1.41,1.35-2.69,2.85-3.85,4.5c-1.16,1.65-2.14,3.45-2.93,5.37c-0.8,1.93-1.42,4.03-1.88,6.29
	c-0.46,2.27-0.66,4.69-0.6,7.26c0,2.7,0.23,5.21,0.69,7.53c0.46,2.33,1.1,4.49,1.93,6.48c0.82,1.99,1.83,3.83,3.03,5.52
	c1.19,1.69,2.51,3.22,3.94,4.59c1.44,1.38,2.98,2.59,4.63,3.63c1.65,1.04,3.39,1.93,5.23,2.67c1.83,0.73,3.7,1.32,5.59,1.75
	c1.89,0.43,3.8,0.7,5.73,0.83c1.93,0.12,3.84,0.12,5.73,0c1.89-0.12,3.74-0.4,5.55-0.83c1.8-0.43,3.54-1.01,5.23-1.75
	c1.68-0.74,3.24-1.61,4.68-2.62c1.44-1.01,2.75-2.16,3.94-3.45c1.19-1.29,2.2-2.69,3.03-4.23c0.83-1.53,1.47-3.2,1.93-5.01
	c0.46-1.8,0.69-3.75,0.69-5.84H49.57c-0.31,1.59-0.87,3.02-1.7,4.27c-0.83,1.26-1.8,2.3-2.93,3.12c-1.13,0.83-2.38,1.44-3.76,1.84
	c-1.38,0.4-2.77,0.58-4.17,0.55c-1.41-0.03-2.81-0.29-4.22-0.78c-1.41-0.49-2.69-1.25-3.85-2.3c-1.16-1.04-2.17-2.35-3.02-3.91
	c-0.86-1.56-1.47-3.39-1.83-5.47h16.14L40.31,26.96z M82.85,67.4L82.4,54.35c2.26,0.31,4.51,0.41,6.74,0.32
	c2.23-0.09,4.39-0.38,6.47-0.87c2.08-0.49,4.1-1.16,6.05-2.02c1.96-0.86,3.76-1.85,5.41-2.99c1.65-1.13,3.16-2.42,4.54-3.86
	c1.38-1.44,2.55-2.99,3.53-4.64c0.98-1.65,1.73-3.4,2.25-5.24c0.52-1.84,0.78-3.77,0.78-5.79c0-2.51-0.31-4.89-0.92-7.12
	c-0.61-2.24-1.53-4.34-2.75-6.3c-1.22-1.96-2.74-3.75-4.54-5.38c-1.8-1.62-3.85-3.03-6.14-4.23c-2.29-1.19-4.83-2.17-7.61-2.94
	c-2.78-0.77-5.79-1.27-9.03-1.52c-3.24-0.25-6.69-0.2-10.36,0.14c-3.67,0.34-7.49,1-11.46,1.97V67.4H82.85z M90.79,14.7
	c2.54,0.52,4.71,1.35,6.51,2.48c1.8,1.13,3.21,2.57,4.22,4.32c1.01,1.75,1.51,3.81,1.51,6.2c0,2.76-0.45,4.95-1.33,6.57
	c-0.89,1.62-2.2,2.88-3.95,3.77c-1.74,0.89-3.9,1.46-6.46,1.7c-2.57,0.24-5.54,0.31-8.9,0.18V14.1
	C85.45,13.98,88.25,14.18,90.79,14.7 M121.5,10.61c-0.27,2.76-0.52,5.42-0.73,8c-0.22,2.57-0.35,5.09-0.41,7.54
	c-0.06,2.45-0.09,4.9-0.09,7.35c0,2.45,0.03,4.93,0.09,7.45c0.06,2.51,0.2,5.15,0.41,7.9c0.21,2.76,0.46,5.67,0.73,8.73
	c0.28,3.06,0.63,6.34,1.06,9.83h18.16c-0.25-2.39-0.44-4.67-0.6-6.85c-0.15-2.17-0.24-4.32-0.27-6.43
	c-0.03-2.11,0.03-4.26,0.18-6.43c0.15-2.17,0.35-4.43,0.6-6.75h17.24c0.43,2.27,0.72,4.49,0.87,6.66c0.15,2.17,0.21,4.33,0.18,6.48
	c-0.03,2.15-0.14,4.32-0.32,6.53c-0.18,2.2-0.43,4.47-0.73,6.8h18.53c0.37-3.62,0.69-6.97,0.96-10.06c0.28-3.09,0.52-6,0.73-8.73
	c0.21-2.73,0.35-5.31,0.41-7.77c0.06-2.45,0.09-4.87,0.09-7.26c0-2.39-0.06-4.78-0.18-7.17c-0.12-2.39-0.29-4.85-0.51-7.4
	c-0.22-2.54-0.49-5.22-0.83-8.04c-0.34-2.82-0.72-5.88-1.15-9.19h-18.07c0.37,2.14,0.63,4.26,0.78,6.34
	c0.15,2.08,0.23,4.15,0.23,6.2c0,2.05-0.08,4.12-0.23,6.2c-0.15,2.08-0.41,4.23-0.78,6.43h-17.24c-0.31-2.27-0.54-4.44-0.69-6.53
	c-0.15-2.08-0.23-4.15-0.23-6.2c0-2.05,0.09-4.1,0.28-6.16c0.18-2.05,0.4-4.15,0.64-6.29h-18.07
	C122.13,4.91,121.78,7.85,121.5,10.61 M218.39,26.96H202.8c0.37-2.21,0.99-4.06,1.88-5.56c0.89-1.5,1.96-2.71,3.21-3.63
	c1.25-0.92,2.6-1.58,4.04-1.98c1.43-0.4,2.89-0.57,4.36-0.51c1.47,0.06,2.87,0.32,4.22,0.78c1.34,0.46,2.55,1.07,3.62,1.84
	c1.07,0.77,1.93,1.66,2.57,2.67c0.64,1.01,0.96,2.1,0.96,3.26h12.66c-0.06-2.02-0.32-3.89-0.78-5.61c-0.46-1.71-1.12-3.31-1.97-4.78
	c-0.86-1.47-1.88-2.8-3.07-4c-1.19-1.19-2.51-2.25-3.94-3.17c-1.44-0.92-2.97-1.7-4.59-2.34c-1.62-0.64-3.33-1.16-5.14-1.56
	c-1.8-0.4-3.64-0.64-5.5-0.73c-1.86-0.09-3.76-0.05-5.69,0.14c-1.93,0.18-3.82,0.52-5.69,1.01c-1.87,0.49-3.68,1.1-5.46,1.84
	c-1.78,0.73-3.48,1.64-5.14,2.71c-1.65,1.07-3.18,2.28-4.58,3.63c-1.41,1.35-2.69,2.85-3.85,4.5c-1.16,1.65-2.14,3.45-2.93,5.37
	c-0.8,1.93-1.42,4.03-1.88,6.29c-0.46,2.27-0.66,4.69-0.6,7.26c0,2.7,0.23,5.21,0.69,7.53c0.46,2.33,1.1,4.49,1.93,6.48
	c0.82,1.99,1.83,3.83,3.03,5.52c1.19,1.69,2.51,3.22,3.94,4.59c1.43,1.38,2.98,2.59,4.63,3.63c1.65,1.04,3.39,1.93,5.23,2.67
	c1.83,0.73,3.7,1.32,5.6,1.75c1.89,0.43,3.81,0.7,5.73,0.83c1.93,0.12,3.84,0.12,5.73,0c1.89-0.12,3.74-0.4,5.55-0.83
	c1.8-0.43,3.54-1.01,5.23-1.75c1.68-0.74,3.24-1.61,4.68-2.62c1.44-1.01,2.75-2.16,3.94-3.45c1.19-1.29,2.2-2.69,3.03-4.23
	c0.83-1.53,1.47-3.2,1.92-5.01c0.46-1.8,0.69-3.75,0.69-5.84h-13.39c-0.31,1.59-0.87,3.02-1.7,4.27c-0.83,1.26-1.8,2.3-2.93,3.12
	c-1.13,0.83-2.38,1.44-3.76,1.84c-1.38,0.4-2.77,0.58-4.17,0.55c-1.41-0.03-2.81-0.29-4.22-0.78c-1.41-0.49-2.69-1.25-3.85-2.3
	c-1.16-1.04-2.17-2.35-3.03-3.91c-0.85-1.56-1.46-3.39-1.83-5.47h16.14L218.39,26.96z M301.47,23.56c-0.06-1.96-0.32-3.8-0.78-5.51
	c-0.46-1.71-1.1-3.31-1.93-4.78c-0.82-1.47-1.82-2.8-2.98-4c-1.16-1.2-2.44-2.25-3.85-3.17c-1.41-0.92-2.92-1.72-4.54-2.39
	c-1.62-0.67-3.3-1.2-5.04-1.56c-1.74-0.37-3.55-0.6-5.41-0.69c-1.87-0.09-3.73-0.04-5.59,0.14c-1.87,0.18-3.71,0.51-5.55,0.96
	c-1.84,0.46-3.62,1.07-5.36,1.84c-1.74,0.77-3.41,1.69-5,2.76c-1.59,1.07-3.09,2.28-4.49,3.63c-1.41,1.35-2.68,2.83-3.81,4.46
	c-1.13,1.62-2.08,3.42-2.84,5.38c-0.76,1.96-1.38,4.08-1.83,6.34c-0.46,2.27-0.69,4.69-0.69,7.26c0,2.63,0.24,5.13,0.73,7.49
	c0.49,2.36,1.15,4.54,1.97,6.53c0.82,1.99,1.82,3.83,2.98,5.51c1.16,1.68,2.48,3.22,3.94,4.6c1.47,1.38,3.03,2.59,4.68,3.63
	s3.38,1.93,5.18,2.67c1.8,0.73,3.67,1.32,5.59,1.74c1.93,0.43,3.85,0.71,5.78,0.83c1.93,0.12,3.84,0.12,5.73,0
	c1.89-0.12,3.74-0.42,5.55-0.87c1.8-0.46,3.53-1.04,5.18-1.75c1.65-0.7,3.21-1.56,4.68-2.57c1.47-1.01,2.78-2.16,3.94-3.45
	c1.16-1.29,2.17-2.71,3.03-4.27c0.86-1.56,1.51-3.25,1.97-5.05c0.46-1.81,0.69-3.72,0.69-5.74l-13.39-0.09
	c-0.25,1.41-0.84,2.65-1.79,3.72c-0.95,1.07-2.08,1.95-3.39,2.62c-1.32,0.67-2.78,1.15-4.4,1.42c-1.62,0.27-3.24,0.29-4.86,0.04
	c-1.62-0.24-3.21-0.77-4.77-1.56c-1.56-0.79-2.93-1.9-4.13-3.31c-1.19-1.41-2.15-3.16-2.89-5.24c-0.73-2.08-1.1-4.56-1.1-7.45
	c0-2.88,0.34-5.38,1.01-7.49c0.67-2.11,1.56-3.92,2.66-5.42c1.1-1.5,2.37-2.68,3.81-3.54c1.44-0.86,2.92-1.44,4.45-1.74
	c1.53-0.31,3.06-0.34,4.59-0.09c1.53,0.24,2.95,0.72,4.27,1.42c1.31,0.71,2.44,1.62,3.39,2.76c0.95,1.13,1.61,2.47,1.97,4H301.47z"
	/>
</svg>
