<svg version="1.2" xmlns="http://www.w3.org/2000/svg" viewBox="0 0 1552 1604" width="1552" height="1604">
	<title>logo (42)-svg</title>
	<style>
		.s0 { fill: #69be28 } 
		.s1 { fill: #ffffff } 
		.s2 { fill: #b4de93 } 
	</style>
	<path id="Layer" class="s0" d="m1552 0v1604h-1552v-1604z"/>
	<path id="Layer" class="s1" d="m515 377c22.8-20.9 54.5-21.7 70.8-1.9 16.4 19.8 11.2 52.8-11.6 73.6-22.8 20.9-54.5 21.7-70.9 1.9-16.3-19.8-11.1-52.8 11.7-73.6z"/>
	<path id="Layer" fill-rule="evenodd" class="s1" d="m1350.7 1035.5c1.2 0.1 19.7 9.6 19.7 9.6 0 0-76.2 77.2-154.8 26.7-36.6-23.5-44.5-65.3-49.2-58.2-35.3 54.1-86 92.7-116 108.5-15.9 8.3-104.9 39.2-134.2-22.9-8.2-17.6-34-104.3 55.6-226 11.7-16 90.2-109.4 170-107.2 69.8 5.3 88.1 67.9 88.1 67.9 0 0-11.8 72.5-12.2 114.6-1.3 164.4 109.2 101.7 133 87zm-171.7-94.6c4.3-8 21.5-58.2-0.6-89.8-18.4-26.3-72-10.3-86.7-1.8-94.4 54.3-117.8 146.8-124.1 179.2-8 40.8 6.7 81.9 77.7 46.2 40.9-20.7 97.2-65.6 133.7-133.8z"/>
	<path id="Layer" class="s1" d="m406.9 675.8c9.4-23.7 25.6-45.8 61.9-35.5 29.5 8.3 21.3 17.6 21.3 17.6-108.7 166.7-151.6 497-105.1 579.7 12.4 19.8 5.3 13-10 11.7-47.5-3.8-52.6-49.3-52.6-49.3 0 0-53-177.2 84.5-524.2z"/>
	<path id="Layer" class="s1" d="m556.4 984.1c13.1-39.6 49.6-86.5 60.2-100.1 77.5-99.2 180.3-88.1 205.3-77.8 120.4 49.4 52 219.9 17.3 262.8-132 163.5-315.4 137.5-331.2 134.5-54.9-10.5-75.6-39.8-75.6-39.8 0 0 21.3-5.3 20.2-5.3 24.7 27.2 125 30.9 173.4 12.4 153.9-59 189.4-163 195.9-184.2 13-42 22.8-133.3-83.8-111.2-107.4 22.2-171.1 165.6-198.2 203.9-4.1 5.8-49.6-17.3-46.1-61.8 9-89 29.8-217.1 88-364.1 9.4-23.7 30.3-45.5 66.7-35.5 25.9 7.2 16.5 17.7 16.5 17.7-57 87.4-91.7 221-108.6 343.6z"/>
	<path id="Layer" class="s2" d="m1088.4 456.5c0 0 36.2-8.6 15.8-2.2-607.4 171.2-849.3 145.3-901.3 100.8-93.8-80.5 77.9-169.4 252.6-158.2 0 0-13 16-13.6 33.3-28.9 3.1-165.8 9.9-158.7 76.7 10.7 101 650-12.4 805.2-50.4z"/>
</svg>